<?xml version="1.0" encoding="UTF-8" standalone="no"?>
<!DOCTYPE svg PUBLIC "-//W3C//DTD SVG 1.0//EN" "http://www.w3.org/TR/2001/REC-SVG-20010904/DTD/svg10.dtd">
<!-- Generated by Microsoft Visio 11.0, SVG Export, v1.0 OpenStack Accounting Model v1.0.svg Page-1 -->
<svg xmlns="http://www.w3.org/2000/svg" xmlns:v="http://schemas.microsoft.com/visio/2003/SVGExtensions/" width="8.5in"
		height="11in" viewBox="0 0 612 792" xml:space="preserve" color-interpolation-filters="sRGB" class="st38">
	<v:documentProperties v:langID="1033" v:viewMarkup="false">
		<v:userDefs>
			<v:ud v:nameU="msvNoAutoConnect" v:val="VT0(1):26"/>
		</v:userDefs>
	</v:documentProperties>

	<style type="text/css">
	<![CDATA[
		.st1 {marker-end:url(#mrkr13-6);stroke:#000000;stroke-dasharray:1.67983,1.19988;stroke-linecap:round;stroke-linejoin:round;stroke-width:0.239976}
		.st2 {fill:#000000;fill-opacity:1;stroke:#000000;stroke-opacity:1;stroke-width:0.086948582161584}
		.st3 {stroke:#002060;stroke-dasharray:1.2,2.4;stroke-linecap:round;stroke-linejoin:round;stroke-width:1.2}
		.st4 {fill:#e8eef7;stroke:#000000;stroke-linecap:round;stroke-linejoin:round;stroke-width:0.24}
		.st5 {fill:#000000;font-family:Arial;font-size:0.666664em}
		.st6 {stroke:#000000;stroke-dasharray:21.84,15.6;stroke-linecap:round;stroke-linejoin:round;stroke-width:3.12}
		.st7 {fill:none;stroke:none;stroke-linecap:round;stroke-linejoin:round;stroke-width:0.72}
		.st8 {fill:#000000;font-family:Arial;font-size:1.16666em}
		.st9 {fill:#d9d9d9;stroke:#000000;stroke-linecap:round;stroke-linejoin:round;stroke-width:0.24}
		.st10 {fill:#96afcf;stroke:#000000;stroke-linecap:round;stroke-linejoin:round;stroke-width:0.24}
		.st11 {fill:#000000;font-family:Arial;font-size:0.666664em;font-weight:bold}
		.st12 {fill:#c00000;font-size:1em}
		.st13 {fill:#c00000;font-family:Arial;font-size:0.666664em;font-weight:bold}
		.st14 {font-size:1em}
		.st15 {fill:none;stroke:#000000;stroke-linecap:round;stroke-linejoin:round;stroke-width:0.72}
		.st16 {fill:#000000;font-family:Courier New;font-size:0.666664em;font-weight:bold}
		.st17 {fill:#000000;fill-opacity:0}
		.st18 {stroke:none;stroke-linecap:butt;stroke-width:0.75}
		.st19 {fill:url(#grad33-83);stroke:none;stroke-linecap:round;stroke-linejoin:round;stroke-width:0.75}
		.st20 {fill:url(#grad25-89);stroke:none;stroke-linecap:round;stroke-linejoin:round;stroke-width:0.75}
		.st21 {fill:url(#grad31-93);stroke:none;stroke-linecap:round;stroke-linejoin:round;stroke-width:0.75}
		.st22 {fill:url(#grad25-99)}
		.st23 {stroke:none;stroke-linecap:round;stroke-linejoin:round;stroke-width:0.75}
		.st24 {fill:url(#grad40-104)}
		.st25 {stroke:#996633;stroke-linecap:butt;stroke-width:0.375}
		.st26 {fill:none}
		.st27 {stroke:#295687;stroke-linecap:round;stroke-linejoin:round;stroke-width:0.375}
		.st28 {stroke:#000000;stroke-linecap:round;stroke-linejoin:round;stroke-width:0.24}
		.st29 {fill:#ffffff;stroke:#000000;stroke-linecap:round;stroke-linejoin:round;stroke-width:0.24}
		.st30 {fill:#d2c9de;stroke:#000000;stroke-linecap:round;stroke-linejoin:round;stroke-width:0.24}
		.st31 {marker-start:url(#mrkr13-242);stroke:#000000;stroke-linecap:round;stroke-linejoin:round;stroke-width:0.24}
		.st32 {fill:#000000;fill-opacity:1;stroke:#000000;stroke-opacity:1;stroke-width:0.11764705882353}
		.st33 {fill:#ffffff;marker-start:url(#mrkr13-246);stroke:#000000;stroke-linecap:round;stroke-linejoin:round;stroke-width:0.24}
		.st34 {marker-start:url(#mrkr13-269);stroke:#285ea6;stroke-linecap:round;stroke-linejoin:round;stroke-width:1.2}
		.st35 {fill:#285ea6;fill-opacity:1;stroke:#285ea6;stroke-opacity:1;stroke-width:0.32258064516129}
		.st36 {fill:#ffff00;stroke:#000000;stroke-linecap:round;stroke-linejoin:round;stroke-width:0.24}
		.st37 {fill:#002060;font-size:1em}
		.st38 {fill:none;fill-rule:evenodd;font-size:12;overflow:visible;stroke-linecap:square;stroke-miterlimit:3}
	]]>
	</style>

	<defs id="Patterns_And_Gradients">
		<pattern id="grad33-83" v:fillPattern="33" v:foreground="#e3f5f9" v:background="#7bb4d2" x="0" y="0" width="1" height="1"
				patternContentUnits="objectBoundingBox">
			<path d="M 0 1 L 0 0 L 1 0 z" style="fill:url(#grad30-84)"/>
			<path d="M 0 1 L 1 1 L 1 0 z" style="fill:url(#grad25-85)"/>
		</pattern>
		<linearGradient id="grad30-84" v:fillPattern="33" v:foreground="#e3f5f9" v:background="#7bb4d2" x1="0" y1="1" x2="0" y2="0">
			<stop offset="0" style="stop-color:#e3f5f9;stop-opacity:1"/>
			<stop offset="1" style="stop-color:#7bb4d2;stop-opacity:1"/>
		</linearGradient>
		<linearGradient id="grad25-85" v:fillPattern="33" v:foreground="#e3f5f9" v:background="#7bb4d2" x1="0" y1="0" x2="1" y2="0">
			<stop offset="0" style="stop-color:#e3f5f9;stop-opacity:1"/>
			<stop offset="1" style="stop-color:#7bb4d2;stop-opacity:1"/>
		</linearGradient>
		<linearGradient id="grad25-89" v:fillPattern="25" v:foreground="#f7f3e8" v:background="#b8e6ef" x1="0" y1="0" x2="1" y2="0">
			<stop offset="0" style="stop-color:#f7f3e8;stop-opacity:1"/>
			<stop offset="1" style="stop-color:#b8e6ef;stop-opacity:1"/>
		</linearGradient>
		<pattern id="grad31-93" v:fillPattern="31" v:foreground="#b8e6ef" v:background="#7bb4d2" x="0" y="0" width="1" height="1"
				patternContentUnits="objectBoundingBox">
			<path d="M 0 0 L 0 1 L 1 1 z" style="fill:url(#grad28-94)"/>
			<path d="M 0 0 L 1 0 L 1 1 z" style="fill:url(#grad25-95)"/>
		</pattern>
		<linearGradient id="grad28-94" v:fillPattern="31" v:foreground="#b8e6ef" v:background="#7bb4d2" x1="0" y1="0" x2="0" y2="1">
			<stop offset="0" style="stop-color:#b8e6ef;stop-opacity:1"/>
			<stop offset="1" style="stop-color:#7bb4d2;stop-opacity:1"/>
		</linearGradient>
		<linearGradient id="grad25-95" v:fillPattern="31" v:foreground="#b8e6ef" v:background="#7bb4d2" x1="0" y1="0" x2="1" y2="0">
			<stop offset="0" style="stop-color:#b8e6ef;stop-opacity:1"/>
			<stop offset="1" style="stop-color:#7bb4d2;stop-opacity:1"/>
		</linearGradient>
		<linearGradient id="grad25-99" v:fillPattern="25" v:foreground="#7bb4d2" v:background="#658eb8" x1="0" y1="0" x2="1" y2="0">
			<stop offset="0" style="stop-color:#7bb4d2;stop-opacity:1"/>
			<stop offset="1" style="stop-color:#658eb8;stop-opacity:1"/>
		</linearGradient>
		<radialGradient id="grad40-104" v:fillPattern="40" v:foreground="#ffffff" v:background="#da8c36" cx="0.5" cy="0.5" r="0.5">
			<stop offset="0" style="stop-color:#ffffff;stop-opacity:1"/>
			<stop offset="1" style="stop-color:#da8c36;stop-opacity:1"/>
		</radialGradient>
	</defs>
	<defs id="Markers">
		<g id="lend13">
			<path d="M 3 1 L -0 0 L 3 -1 L 3 1 " style="stroke:none"/>
		</g>
		<marker id="mrkr13-6" class="st2" v:arrowType="13" v:arrowSize="2" v:setback="34.5032" refX="-34.503150315032"
				orient="auto" markerUnits="strokeWidth">
			<use xlink:href="#lend13" transform="scale(-11.501050105011,-11.501050105011) "/>
		</marker>
		<marker id="mrkr13-242" class="st32" v:arrowType="13" v:arrowSize="1" v:setback="24" refX="24" orient="auto"
				markerUnits="strokeWidth">
			<use xlink:href="#lend13" transform="scale(8.5) "/>
		</marker>
		<marker id="mrkr13-246" class="st32" v:arrowType="13" v:arrowSize="1" v:setback="25.5" refX="25.5" orient="auto"
				markerUnits="strokeWidth">
			<use xlink:href="#lend13" transform="scale(8.5) "/>
		</marker>
		<marker id="mrkr13-269" class="st35" v:arrowType="13" v:arrowSize="2" v:setback="9" refX="9" orient="auto"
				markerUnits="strokeWidth">
			<use xlink:href="#lend13" transform="scale(3.1) "/>
		</marker>
	</defs>
	<g v:mID="4" v:index="1" v:groupContext="foregroundPage">
		<title>Page-1</title>
		<v:pageProperties v:drawingScale="1" v:pageScale="1" v:drawingUnits="0" v:shadowOffsetX="9" v:shadowOffsetY="-9"/>
		<v:layer v:name="Connector" v:index="0"/>
		<v:layer v:name="Flowchart" v:index="1"/>
		<g id="shape84-1" v:mID="84" v:groupContext="shape" v:layerMember="0" transform="translate(351,-332.438)">
			<title>Dynamic connector.84</title>
			<path d="M0 783.56 L0 782.44 L-153.72 782.44" class="st1"/>
		</g>
		<g id="shape62-7" v:mID="62" v:groupContext="shape" transform="translate(288,-468)">
			<title>Sheet.62</title>
			<path d="M0 792 L252 792" class="st3"/>
		</g>
		<g id="shape15-10" v:mID="15" v:groupContext="shape" transform="translate(18,-576)">
			<title>Sheet.15</title>
			<desc>Tenant A</desc>
			<v:textBlock v:margins="rect(4,4,4,4)" v:verticalAlign="2"/>
			<v:textRect cx="36" cy="756" width="72" height="72"/>
			<ellipse cx="36" cy="756" rx="36" ry="36" class="st4"/>
			<text x="19.77" y="785.6" class="st5" v:langID="1033"><v:paragraph v:horizAlign="1"/><v:tabList/>Tenant A</text>		</g>
		<g id="shape43-13" v:mID="43" v:groupContext="shape" transform="translate(121.5,-576)">
			<title>Sheet.43</title>
			<desc>Tenant B</desc>
			<v:textBlock v:margins="rect(4,4,4,4)" v:verticalAlign="2"/>
			<v:textRect cx="36" cy="756" width="72" height="72"/>
			<ellipse cx="36" cy="756" rx="36" ry="36" class="st4"/>
			<text x="19.77" y="785.6" class="st5" v:langID="1033"><v:paragraph v:horizAlign="1"/><v:tabList/>Tenant B</text>		</g>
		<g id="shape1-16" v:mID="1" v:groupContext="shape" transform="translate(1080,144) rotate(90)">
			<title>Sheet.1</title>
			<path d="M0 792 L360 792" class="st6"/>
		</g>
		<g id="shape2-19" v:mID="2" v:groupContext="shape" transform="translate(36,-648)">
			<title>Sheet.2</title>
			<desc>Operator</desc>
			<v:textBlock v:margins="rect(4,4,4,4)"/>
			<v:textRect cx="72" cy="774" width="144" height="36"/>
			<rect x="0" y="756" width="144" height="36" class="st7"/>
			<text x="44.38" y="778.2" class="st8" v:langID="1033"><v:paragraph v:horizAlign="1"/><v:tabList/>Operator</text>		</g>
		<g id="shape3-22" v:mID="3" v:groupContext="shape" transform="translate(351,-648)">
			<title>Sheet.3</title>
			<desc>OpenStack</desc>
			<v:textBlock v:margins="rect(4,4,4,4)"/>
			<v:textRect cx="81" cy="774" width="162" height="36"/>
			<rect x="0" y="756" width="162" height="36" class="st7"/>
			<text x="46.37" y="778.2" class="st8" v:langID="1033"><v:paragraph v:horizAlign="1"/><v:tabList/>OpenStack</text>		</g>
		<g id="shape4-25" v:mID="4" v:groupContext="shape" transform="translate(306,-423)">
			<title>Rectangle</title>
			<desc>SERVICE</desc>
			<v:userDefs>
				<v:ud v:nameU="visVersion" v:val="VT0(12):26"/>
			</v:userDefs>
			<v:textBlock v:margins="rect(4,4,4,4)" v:verticalAlign="0"/>
			<v:textRect cx="55.7451" cy="732.375" width="111.5" height="119.25"/>
			<rect x="0" y="672.75" width="111.49" height="119.25" class="st9"/>
			<text x="38.18" y="683.95" class="st5" v:langID="1033"><v:paragraph v:horizAlign="1"/><v:tabList/>SERVICE</text>		</g>
		<g id="shape5-28" v:mID="5" v:groupContext="shape" transform="translate(306,-409.5)">
			<title>Sheet.5</title>
			<desc>Admin API</desc>
			<v:textBlock v:margins="rect(4,4,4,4)"/>
			<v:textRect cx="33.75" cy="785.25" width="67.5" height="13.5"/>
			<rect x="0" y="778.5" width="67.5" height="13.5" class="st10"/>
			<text x="14.85" y="787.65" class="st5" v:langID="1033"><v:paragraph v:horizAlign="1"/><v:tabList/>Admin API</text>		</g>
		<g id="shape6-31" v:mID="6" v:groupContext="shape" transform="translate(306,-542.25)">
			<title>Sheet.6</title>
			<desc>Service API</desc>
			<v:textBlock v:margins="rect(4,4,4,4)"/>
			<v:textRect cx="33.75" cy="785.25" width="67.5" height="13.5"/>
			<rect x="0" y="778.5" width="67.5" height="13.5" class="st10"/>
			<text x="12.85" y="787.65" class="st5" v:langID="1033"><v:paragraph v:horizAlign="1"/><v:tabList/>Service API</text>		</g>
		<g id="shape7-34" v:mID="7" v:groupContext="shape" v:layerMember="0" transform="translate(83.25,-438.75)">
			<title>Dynamic connector</title>
			<path d="M0 792 L0 816.75 L214.47 816.75" class="st1"/>
		</g>
		<g id="shape8-39" v:mID="8" v:groupContext="shape" transform="translate(126,-396)">
			<title>Sheet.8</title>
			<desc>PUT /Accounts/A1000</desc>
			<v:textBlock v:margins="rect(4,4,4,4)"/>
			<v:textRect cx="47.25" cy="783" width="94.5" height="18"/>
			<rect x="0" y="774" width="94.5" height="18" class="st7"/>
			<text x="5.9" y="785.4" class="st11" v:langID="1033"><v:paragraph v:horizAlign="1"/><v:tabList/>PUT /Accounts/<tspan
						class="st12">A</tspan><tspan class="st12">1000</tspan></text>		</g>
		<g id="shape9-44" v:mID="9" v:groupContext="shape" v:layerMember="0" transform="translate(333,-594)">
			<title>Dynamic connector.9</title>
			<path d="M9 792 L9 821.97" class="st1"/>
		</g>
		<g id="shape10-49" v:mID="10" v:groupContext="shape" transform="translate(306,-598.5)">
			<title>Sheet.10</title>
			<desc>POST /v1.0/A1000/Widget</desc>
			<v:textBlock v:margins="rect(4,4,4,4)"/>
			<v:textRect cx="56.25" cy="783" width="112.5" height="18"/>
			<rect x="0" y="774" width="112.5" height="18" class="st7"/>
			<text x="8.01" y="785.4" class="st11" v:langID="1033"><v:paragraph v:horizAlign="1"/><v:tabList/>POST /v1.0/<tspan
						class="st12">A</tspan><tspan class="st12">1000</tspan>/Widget</text>		</g>
		<g id="shape11-54" v:mID="11" v:groupContext="shape" transform="translate(312.75,-481.5)">
			<title>Sheet.11</title>
			<desc>/A1000</desc>
			<v:textBlock v:margins="rect(4,4,4,4)"/>
			<v:textRect cx="37.125" cy="783" width="74.25" height="18"/>
			<rect x="0" y="774" width="74.25" height="18" class="st7"/>
			<text x="4" y="785.4" class="st13" v:langID="1033"><v:paragraph/><v:tabList/>/A1000</text>		</g>
		<g id="shape12-57" v:mID="12" v:groupContext="shape" transform="translate(333,-470.25)">
			<title>Sheet.12</title>
			<desc>Widget1 Widget2 Etc...</desc>
			<v:textBlock v:margins="rect(4,4,4,4)" v:verticalAlign="0"/>
			<v:textRect cx="27" cy="783" width="54" height="18"/>
			<rect x="0" y="774" width="54" height="18" class="st7"/>
			<text x="4" y="785.2" class="st5" v:langID="1033"><v:paragraph/><v:tabList/>Widget1<v:newlineChar/><tspan x="4"
						dy="1.2em" class="st14">Widget</tspan>2<v:newlineChar/><tspan x="4" dy="1.2em" class="st14">Etc</tspan>...</text>		</g>
		<g id="shape13-62" v:mID="13" v:groupContext="shape" v:layerMember="0" transform="translate(387,-423)">
			<title>Dynamic connector.13</title>
			<path d="M9 792 L9 843.35" class="st1"/>
		</g>
		<g id="shape14-67" v:mID="14" v:groupContext="shape" transform="translate(351,-321.75)">
			<title>Sheet.14</title>
			<desc>Date Account Resource Method MetricA -------- -------- ------...</desc>
			<v:textBlock v:margins="rect(4,4,4,4)" v:verticalAlign="0"/>
			<v:textRect cx="108" cy="769.5" width="216" height="45"/>
			<rect x="0" y="747" width="216" height="45" class="st15"/>
			<text x="4" y="758.2" class="st16" v:langID="1033"><v:paragraph/><v:tabList/>Date     <tspan class="st12">Account</tspan>  Resource  Method MetricA<v:newlineChar/><tspan
						x="4" dy="1.2em" class="st14">--------</tspan> <tspan class="st12">--------</tspan> --------- ------ -------<v:newlineChar/><tspan
						x="4" dy="1.2em" class="st14">20100101 </tspan><tspan class="st12">A</tspan><tspan class="st12">1000</tspan>    Widget1   POST   10.00<v:newlineChar/></text>		</g>
		<g id="group16-76" transform="translate(50.4,-618.3) scale(-1,1)" v:mID="16" v:groupContext="group">
			<v:userDefs>
				<v:ud v:nameU="SkinColor" v:prompt="" v:val="VT5(#da8c36)"/>
				<v:ud v:nameU="visVersion" v:prompt="" v:val="VT0(12):26"/>
			</v:userDefs>
			<title>Person</title>
			<g id="shape17-77" v:mID="17" v:groupContext="shape" transform="translate(0.328365,-0.170418)">
				<title>Sheet.17</title>
				<path d="M0.94 781.1 L0.87 781.14 C0.45 781.43 0.26 781.93 0.21 782.56 C0.17 783.45 0.14 784.17 0.13 784.46 L0.07
							 785.83 C0.05 786.23 0.02 787 0 787.35 C-0.02 788.05 0.48 788.56 1.27 788.65 C2.19 789.61 2.43 790.01
							 3.76 790.56 C4.85 790.95 5.85 791.24 5.85 791.24 C6.65 791.96 7.25 792.05 7.82 791.98 A3.21342 3.19611
							 -90 0 0 9.25 791.44 A1.61122 1.60254 -90 0 0 10.14 790.2 A83.24 82.7916 -90 0 0 9.97 786.92 A166.091
							 165.196 -90 0 0 9.88 785.54 A7.62696 7.58588 -90 0 0 9.65 783.93 A6.14641 6.1797 -180 0 0 6.54 780.4
							 L6.53 779.84 C7.23 779.27 7.7 778.31 7.75 777.06 C7.67 775.05 6.43 773.72 4.91 773.66 C3.39 773.72 2.09
							 775.05 2.07 777.06 C2.08 778.29 2.54 779.24 3.23 779.81 L1 781.07 C0.98 781.08 0.96 781.09 0.94 781.1
							 Z M0.88 781.14 C0.88 781.14 0.88 781.14 0.88 781.14 L0.88 781.14 Z" class="st17"/>
				<path d="M0.94 781.1 L0.87 781.14 C0.45 781.43 0.26 781.93 0.21 782.56 C0.17 783.45 0.14 784.17 0.13 784.46 L0.07
							 785.83 C0.05 786.23 0.02 787 0 787.35 C-0.02 788.05 0.48 788.56 1.27 788.65 C2.19 789.61 2.43 790.01
							 3.76 790.56 C4.85 790.95 5.85 791.24 5.85 791.24 C6.65 791.96 7.25 792.05 7.82 791.98 A3.21342 3.19611
							 -90 0 0 9.25 791.44 A1.61122 1.60254 -90 0 0 10.14 790.2 A83.24 82.7916 -90 0 0 9.97 786.92 A166.091
							 165.196 -90 0 0 9.88 785.54 A7.62696 7.58588 -90 0 0 9.65 783.93 A6.14641 6.1797 -180 0 0 6.54 780.4
							 L6.53 779.84 C7.23 779.27 7.7 778.31 7.75 777.06 C7.67 775.05 6.43 773.72 4.91 773.66 C3.39 773.72 2.09
							 775.05 2.07 777.06 C2.08 778.29 2.54 779.24 3.23 779.81 L1 781.07 C0.98 781.08 0.96 781.09 0.94 781.1M0.88
							 781.14 C0.88 781.14 0.88 781.14 0.88 781.14" class="st18"/>
			</g>
			<g id="shape18-80" v:mID="18" v:groupContext="shape" transform="translate(0.444597,-0.558365)">
				<title>Sheet.18</title>
				<path d="M0.13 784.46 C0.14 784.17 0.17 783.45 0.21 782.56 C0.32 781.09 1.27 780.31 3.95 781.34 C4.63 781.85 8.18
							 783.21 7.53 789.68 L7.82 791.98 C7.25 792.05 6.65 791.96 5.85 791.24 C5.85 791.24 4.85 790.95 3.76 790.56
							 C2.43 790.01 2.19 789.61 1.27 788.65 C0.49 788.56 -0.02 788.05 0 787.35 C0.02 787 0.05 786.23 0.07 785.83
							 L0.13 784.46 Z" class="st19"/>
			</g>
			<g id="shape19-86" v:mID="19" v:groupContext="shape" transform="translate(1.31797,-7.29499)">
				<title>Sheet.19</title>
				<path d="M6.15 792 L8.77 790.67 A6.14641 6.1797 -180 0 0 2.37 786.54 L0 787.88 A6.04037 6.07308 0 0 1 6.15 792 Z"
						class="st20"/>
			</g>
			<g id="shape20-90" v:mID="20" v:groupContext="shape" transform="translate(7.46747,-0.582914)">
				<title>Sheet.20</title>
				<path d="M0 785.29 A2.13912 2.15071 0 0 1 2.62 783.95 A7.62696 7.58588 90 0 1 2.86 785.57 A166.091 165.196 90 0 1
							 2.95 786.94 A83.24 82.7916 90 0 1 3.11 790.23 A1.61122 1.60254 90 0 1 2.23 791.47 A2.93841 2.92259 90
							 0 1 0.39 792 L0 785.29 Z" class="st21"/>
			</g>
			<g id="shape21-96" v:mID="21" v:groupContext="shape" transform="translate(3.81891,-11.1891)">
				<title>Sheet.21</title>
				<path d="M0.08 790.52 L0.09 791.22 C0.09 791.22 0 791.61 1.42 791.85 C1.42 791.85 2.96 792 3.17 791.61 L3.15 790.27
							 C3.15 790.27 2.06 791.39 0.13 790.49 L0.08 790.52 Z" class="st22"/>
				<path d="M0.08 790.52 L0.09 791.22 C0.09 791.22 0 791.61 1.42 791.85 C1.42 791.85 2.96 792 3.17 791.61 L3.15 790.27
							 C3.15 790.27 2.06 791.39 0.13 790.49" class="st23"/>
			</g>
			<g id="shape22-101" v:mID="22" v:groupContext="shape" transform="translate(2.51221,-12.1353)">
				<title>Sheet.22</title>
				<path d="M5.68 788.63 C5.6 790.71 4.36 792 2.84 792 C1.32 792 0.02 790.71 0 788.63 C0.02 786.63 1.32 785.3 2.84 785.24
							 C4.36 785.3 5.6 786.63 5.68 788.63 L-1.42 783.54 L5.68 788.63 Z" class="st24"/>
				<path d="M5.68 788.63 C5.6 790.71 4.36 792 2.84 792 C1.32 792 0.02 790.71 0 788.63 C0.02 786.63 1.32 785.3 2.84 785.24
							 C4.36 785.3 5.6 786.63 5.68 788.63" class="st25"/>
			</g>
			<g id="shape23-106" v:mID="23" v:groupContext="shape" transform="translate(1.75609,-1.40645)">
				<title>Sheet.23</title>
				<path d="M0 789.41 L0 785.25 L0 789.41 Z M4.54 792 L4.54 787.84 L4.54 792 Z" class="st26"/>
				<path d="M0 789.41 L0 785.25M4.54 792 L4.54 787.84" class="st27"/>
			</g>
			<g id="shape24-109" v:mID="24" v:groupContext="shape" transform="translate(0.444096,-0.562937)">
				<title>Sheet.24</title>
				<path d="M8.76 791.71 C10.28 791.01 10.14 790.21 10.14 790.21 C10.11 788.62 9.87 785.39 9.84 785.01 C9.65 782.85
							 8.15 781.54 7.69 781.14 C7.31 780.81 6.95 780.55 6.56 780.41 L6.53 779.85 C7.3 779.16 7.75 778.18 7.75
							 777.06 C7.75 775.18 6.48 773.66 4.91 773.66 C3.34 773.66 2.07 775.18 2.07 777.06 C2.07 778.19 2.53 779.19
							 3.24 779.81 L0.87 781.14 C0.87 781.14 0.28 781.46 0.21 782.56 L0 787.36 C0 787.36 -0.03 787.82 0.21
							 788.11 C0.72 788.72 1.25 788.63 1.27 788.66 C2.68 790.44 4.29 790.78 5.85 791.25 C5.98 791.29 6.91 792.56
							 8.76 791.71 Z" class="st15"/>
			</g>
		</g>
		<g id="group25-111" transform="translate(66.6,-600.3) scale(-1,1)" v:mID="25" v:groupContext="group">
			<v:userDefs>
				<v:ud v:nameU="SkinColor" v:prompt="" v:val="VT5(#da8c36)"/>
				<v:ud v:nameU="visVersion" v:prompt="" v:val="VT0(12):26"/>
			</v:userDefs>
			<title>Person.25</title>
			<g id="shape26-112" v:mID="26" v:groupContext="shape" transform="translate(0.328365,-0.170418)">
				<title>Sheet.26</title>
				<path d="M0.94 781.1 L0.87 781.14 C0.45 781.43 0.26 781.93 0.21 782.56 C0.17 783.45 0.14 784.17 0.13 784.46 L0.07
							 785.83 C0.05 786.23 0.02 787 0 787.35 C-0.02 788.05 0.48 788.56 1.27 788.65 C2.19 789.61 2.43 790.01
							 3.76 790.56 C4.85 790.95 5.85 791.24 5.85 791.24 C6.65 791.96 7.25 792.05 7.82 791.98 A3.21342 3.19611
							 -90 0 0 9.25 791.44 A1.61122 1.60254 -90 0 0 10.14 790.2 A83.24 82.7916 -90 0 0 9.97 786.92 A166.091
							 165.196 -90 0 0 9.88 785.54 A7.62696 7.58588 -90 0 0 9.65 783.93 A6.14641 6.1797 -180 0 0 6.54 780.4
							 L6.53 779.84 C7.23 779.27 7.7 778.31 7.75 777.06 C7.67 775.05 6.43 773.72 4.91 773.66 C3.39 773.72 2.09
							 775.05 2.07 777.06 C2.08 778.29 2.54 779.24 3.23 779.81 L1 781.07 C0.98 781.08 0.96 781.09 0.94 781.1
							 Z M0.88 781.14 C0.88 781.14 0.88 781.14 0.88 781.14 L0.88 781.14 Z" class="st17"/>
				<path d="M0.94 781.1 L0.87 781.14 C0.45 781.43 0.26 781.93 0.21 782.56 C0.17 783.45 0.14 784.17 0.13 784.46 L0.07
							 785.83 C0.05 786.23 0.02 787 0 787.35 C-0.02 788.05 0.48 788.56 1.27 788.65 C2.19 789.61 2.43 790.01
							 3.76 790.56 C4.85 790.95 5.85 791.24 5.85 791.24 C6.65 791.96 7.25 792.05 7.82 791.98 A3.21342 3.19611
							 -90 0 0 9.25 791.44 A1.61122 1.60254 -90 0 0 10.14 790.2 A83.24 82.7916 -90 0 0 9.97 786.92 A166.091
							 165.196 -90 0 0 9.88 785.54 A7.62696 7.58588 -90 0 0 9.65 783.93 A6.14641 6.1797 -180 0 0 6.54 780.4
							 L6.53 779.84 C7.23 779.27 7.7 778.31 7.75 777.06 C7.67 775.05 6.43 773.72 4.91 773.66 C3.39 773.72 2.09
							 775.05 2.07 777.06 C2.08 778.29 2.54 779.24 3.23 779.81 L1 781.07 C0.98 781.08 0.96 781.09 0.94 781.1M0.88
							 781.14 C0.88 781.14 0.88 781.14 0.88 781.14" class="st18"/>
			</g>
			<g id="shape27-115" v:mID="27" v:groupContext="shape" transform="translate(0.444597,-0.558365)">
				<title>Sheet.27</title>
				<path d="M0.13 784.46 C0.14 784.17 0.17 783.45 0.21 782.56 C0.32 781.09 1.27 780.31 3.95 781.34 C4.63 781.85 8.18
							 783.21 7.53 789.68 L7.82 791.98 C7.25 792.05 6.65 791.96 5.85 791.24 C5.85 791.24 4.85 790.95 3.76 790.56
							 C2.43 790.01 2.19 789.61 1.27 788.65 C0.49 788.56 -0.02 788.05 0 787.35 C0.02 787 0.05 786.23 0.07 785.83
							 L0.13 784.46 Z" class="st19"/>
			</g>
			<g id="shape28-118" v:mID="28" v:groupContext="shape" transform="translate(1.31797,-7.29499)">
				<title>Sheet.28</title>
				<path d="M6.15 792 L8.77 790.67 A6.14641 6.1797 -180 0 0 2.37 786.54 L0 787.88 A6.04037 6.07308 0 0 1 6.15 792 Z"
						class="st20"/>
			</g>
			<g id="shape29-121" v:mID="29" v:groupContext="shape" transform="translate(7.46747,-0.582914)">
				<title>Sheet.29</title>
				<path d="M0 785.29 A2.13912 2.15071 0 0 1 2.62 783.95 A7.62696 7.58588 90 0 1 2.86 785.57 A166.091 165.196 90 0 1
							 2.95 786.94 A83.24 82.7916 90 0 1 3.11 790.23 A1.61122 1.60254 90 0 1 2.23 791.47 A2.93841 2.92259 90
							 0 1 0.39 792 L0 785.29 Z" class="st21"/>
			</g>
			<g id="shape30-124" v:mID="30" v:groupContext="shape" transform="translate(3.81891,-11.1891)">
				<title>Sheet.30</title>
				<path d="M0.08 790.52 L0.09 791.22 C0.09 791.22 0 791.61 1.42 791.85 C1.42 791.85 2.96 792 3.17 791.61 L3.15 790.27
							 C3.15 790.27 2.06 791.39 0.13 790.49 L0.08 790.52 Z" class="st22"/>
				<path d="M0.08 790.52 L0.09 791.22 C0.09 791.22 0 791.61 1.42 791.85 C1.42 791.85 2.96 792 3.17 791.61 L3.15 790.27
							 C3.15 790.27 2.06 791.39 0.13 790.49" class="st23"/>
			</g>
			<g id="shape31-128" v:mID="31" v:groupContext="shape" transform="translate(2.51221,-12.1353)">
				<title>Sheet.31</title>
				<path d="M5.68 788.63 C5.6 790.71 4.36 792 2.84 792 C1.32 792 0.02 790.71 0 788.63 C0.02 786.63 1.32 785.3 2.84 785.24
							 C4.36 785.3 5.6 786.63 5.68 788.63 L-1.42 783.54 L5.68 788.63 Z" class="st24"/>
				<path d="M5.68 788.63 C5.6 790.71 4.36 792 2.84 792 C1.32 792 0.02 790.71 0 788.63 C0.02 786.63 1.32 785.3 2.84 785.24
							 C4.36 785.3 5.6 786.63 5.68 788.63" class="st25"/>
			</g>
			<g id="shape32-132" v:mID="32" v:groupContext="shape" transform="translate(1.75609,-1.40645)">
				<title>Sheet.32</title>
				<path d="M0 789.41 L0 785.25 L0 789.41 Z M4.54 792 L4.54 787.84 L4.54 792 Z" class="st26"/>
				<path d="M0 789.41 L0 785.25M4.54 792 L4.54 787.84" class="st27"/>
			</g>
			<g id="shape33-135" v:mID="33" v:groupContext="shape" transform="translate(0.444096,-0.562937)">
				<title>Sheet.33</title>
				<path d="M8.76 791.71 C10.28 791.01 10.14 790.21 10.14 790.21 C10.11 788.62 9.87 785.39 9.84 785.01 C9.65 782.85
							 8.15 781.54 7.69 781.14 C7.31 780.81 6.95 780.55 6.56 780.41 L6.53 779.85 C7.3 779.16 7.75 778.18 7.75
							 777.06 C7.75 775.18 6.48 773.66 4.91 773.66 C3.34 773.66 2.07 775.18 2.07 777.06 C2.07 778.19 2.53 779.19
							 3.24 779.81 L0.87 781.14 C0.87 781.14 0.28 781.46 0.21 782.56 L0 787.36 C0 787.36 -0.03 787.82 0.21
							 788.11 C0.72 788.72 1.25 788.63 1.27 788.66 C2.68 790.44 4.29 790.78 5.85 791.25 C5.98 791.29 6.91 792.56
							 8.76 791.71 Z" class="st15"/>
			</g>
		</g>
		<g id="group34-137" transform="translate(46.8,-590.4) scale(-1,1)" v:mID="34" v:groupContext="group">
			<v:userDefs>
				<v:ud v:nameU="SkinColor" v:prompt="" v:val="VT5(#da8c36)"/>
				<v:ud v:nameU="visVersion" v:prompt="" v:val="VT0(12):26"/>
			</v:userDefs>
			<title>Person.34</title>
			<g id="shape35-138" v:mID="35" v:groupContext="shape" transform="translate(0.328365,-0.170418)">
				<title>Sheet.35</title>
				<path d="M0.94 781.1 L0.87 781.14 C0.45 781.43 0.26 781.93 0.21 782.56 C0.17 783.45 0.14 784.17 0.13 784.46 L0.07
							 785.83 C0.05 786.23 0.02 787 0 787.35 C-0.02 788.05 0.48 788.56 1.27 788.65 C2.19 789.61 2.43 790.01
							 3.76 790.56 C4.85 790.95 5.85 791.24 5.85 791.24 C6.65 791.96 7.25 792.05 7.82 791.98 A3.21342 3.19611
							 -90 0 0 9.25 791.44 A1.61122 1.60254 -90 0 0 10.14 790.2 A83.24 82.7916 -90 0 0 9.97 786.92 A166.091
							 165.196 -90 0 0 9.88 785.54 A7.62696 7.58588 -90 0 0 9.65 783.93 A6.14641 6.1797 -180 0 0 6.54 780.4
							 L6.53 779.84 C7.23 779.27 7.7 778.31 7.75 777.06 C7.67 775.05 6.43 773.72 4.91 773.66 C3.39 773.72 2.09
							 775.05 2.07 777.06 C2.08 778.29 2.54 779.24 3.23 779.81 L1 781.07 C0.98 781.08 0.96 781.09 0.94 781.1
							 Z M0.88 781.14 C0.88 781.14 0.88 781.14 0.88 781.14 L0.88 781.14 Z" class="st17"/>
				<path d="M0.94 781.1 L0.87 781.14 C0.45 781.43 0.26 781.93 0.21 782.56 C0.17 783.45 0.14 784.17 0.13 784.46 L0.07
							 785.83 C0.05 786.23 0.02 787 0 787.35 C-0.02 788.05 0.48 788.56 1.27 788.65 C2.19 789.61 2.43 790.01
							 3.76 790.56 C4.85 790.95 5.85 791.24 5.85 791.24 C6.65 791.96 7.25 792.05 7.82 791.98 A3.21342 3.19611
							 -90 0 0 9.25 791.44 A1.61122 1.60254 -90 0 0 10.14 790.2 A83.24 82.7916 -90 0 0 9.97 786.92 A166.091
							 165.196 -90 0 0 9.88 785.54 A7.62696 7.58588 -90 0 0 9.65 783.93 A6.14641 6.1797 -180 0 0 6.54 780.4
							 L6.53 779.84 C7.23 779.27 7.7 778.31 7.75 777.06 C7.67 775.05 6.43 773.72 4.91 773.66 C3.39 773.72 2.09
							 775.05 2.07 777.06 C2.08 778.29 2.54 779.24 3.23 779.81 L1 781.07 C0.98 781.08 0.96 781.09 0.94 781.1M0.88
							 781.14 C0.88 781.14 0.88 781.14 0.88 781.14" class="st18"/>
			</g>
			<g id="shape36-141" v:mID="36" v:groupContext="shape" transform="translate(0.444597,-0.558365)">
				<title>Sheet.36</title>
				<path d="M0.13 784.46 C0.14 784.17 0.17 783.45 0.21 782.56 C0.32 781.09 1.27 780.31 3.95 781.34 C4.63 781.85 8.18
							 783.21 7.53 789.68 L7.82 791.98 C7.25 792.05 6.65 791.96 5.85 791.24 C5.85 791.24 4.85 790.95 3.76 790.56
							 C2.43 790.01 2.19 789.61 1.27 788.65 C0.49 788.56 -0.02 788.05 0 787.35 C0.02 787 0.05 786.23 0.07 785.83
							 L0.13 784.46 Z" class="st19"/>
			</g>
			<g id="shape37-144" v:mID="37" v:groupContext="shape" transform="translate(1.31797,-7.29499)">
				<title>Sheet.37</title>
				<path d="M6.15 792 L8.77 790.67 A6.14641 6.1797 -180 0 0 2.37 786.54 L0 787.88 A6.04037 6.07308 0 0 1 6.15 792 Z"
						class="st20"/>
			</g>
			<g id="shape38-147" v:mID="38" v:groupContext="shape" transform="translate(7.46747,-0.582914)">
				<title>Sheet.38</title>
				<path d="M0 785.29 A2.13912 2.15071 0 0 1 2.62 783.95 A7.62696 7.58588 90 0 1 2.86 785.57 A166.091 165.196 90 0 1
							 2.95 786.94 A83.24 82.7916 90 0 1 3.11 790.23 A1.61122 1.60254 90 0 1 2.23 791.47 A2.93841 2.92259 90
							 0 1 0.39 792 L0 785.29 Z" class="st21"/>
			</g>
			<g id="shape39-150" v:mID="39" v:groupContext="shape" transform="translate(3.81891,-11.1891)">
				<title>Sheet.39</title>
				<path d="M0.08 790.52 L0.09 791.22 C0.09 791.22 0 791.61 1.42 791.85 C1.42 791.85 2.96 792 3.17 791.61 L3.15 790.27
							 C3.15 790.27 2.06 791.39 0.13 790.49 L0.08 790.52 Z" class="st22"/>
				<path d="M0.08 790.52 L0.09 791.22 C0.09 791.22 0 791.61 1.42 791.85 C1.42 791.85 2.96 792 3.17 791.61 L3.15 790.27
							 C3.15 790.27 2.06 791.39 0.13 790.49" class="st23"/>
			</g>
			<g id="shape40-154" v:mID="40" v:groupContext="shape" transform="translate(2.51221,-12.1353)">
				<title>Sheet.40</title>
				<path d="M5.68 788.63 C5.6 790.71 4.36 792 2.84 792 C1.32 792 0.02 790.71 0 788.63 C0.02 786.63 1.32 785.3 2.84 785.24
							 C4.36 785.3 5.6 786.63 5.68 788.63 L-1.42 783.54 L5.68 788.63 Z" class="st24"/>
				<path d="M5.68 788.63 C5.6 790.71 4.36 792 2.84 792 C1.32 792 0.02 790.71 0 788.63 C0.02 786.63 1.32 785.3 2.84 785.24
							 C4.36 785.3 5.6 786.63 5.68 788.63" class="st25"/>
			</g>
			<g id="shape41-158" v:mID="41" v:groupContext="shape" transform="translate(1.75609,-1.40645)">
				<title>Sheet.41</title>
				<path d="M0 789.41 L0 785.25 L0 789.41 Z M4.54 792 L4.54 787.84 L4.54 792 Z" class="st26"/>
				<path d="M0 789.41 L0 785.25M4.54 792 L4.54 787.84" class="st27"/>
			</g>
			<g id="shape42-161" v:mID="42" v:groupContext="shape" transform="translate(0.444096,-0.562937)">
				<title>Sheet.42</title>
				<path d="M8.76 791.71 C10.28 791.01 10.14 790.21 10.14 790.21 C10.11 788.62 9.87 785.39 9.84 785.01 C9.65 782.85
							 8.15 781.54 7.69 781.14 C7.31 780.81 6.95 780.55 6.56 780.41 L6.53 779.85 C7.3 779.16 7.75 778.18 7.75
							 777.06 C7.75 775.18 6.48 773.66 4.91 773.66 C3.34 773.66 2.07 775.18 2.07 777.06 C2.07 778.19 2.53 779.19
							 3.24 779.81 L0.87 781.14 C0.87 781.14 0.28 781.46 0.21 782.56 L0 787.36 C0 787.36 -0.03 787.82 0.21
							 788.11 C0.72 788.72 1.25 788.63 1.27 788.66 C2.68 790.44 4.29 790.78 5.85 791.25 C5.98 791.29 6.91 792.56
							 8.76 791.71 Z" class="st15"/>
			</g>
		</g>
		<g id="group44-163" transform="translate(154.8,-620.1) scale(-1,1)" v:mID="44" v:groupContext="group">
			<v:userDefs>
				<v:ud v:nameU="SkinColor" v:prompt="" v:val="VT5(#da8c36)"/>
				<v:ud v:nameU="visVersion" v:prompt="" v:val="VT0(12):26"/>
			</v:userDefs>
			<title>Person.44</title>
			<g id="shape45-164" v:mID="45" v:groupContext="shape" transform="translate(0.328365,-0.170418)">
				<title>Sheet.45</title>
				<path d="M0.94 781.1 L0.87 781.14 C0.45 781.43 0.26 781.93 0.21 782.56 C0.17 783.45 0.14 784.17 0.13 784.46 L0.07
							 785.83 C0.05 786.23 0.02 787 0 787.35 C-0.02 788.05 0.48 788.56 1.27 788.65 C2.19 789.61 2.43 790.01
							 3.76 790.56 C4.85 790.95 5.85 791.24 5.85 791.24 C6.65 791.96 7.25 792.05 7.82 791.98 A3.21342 3.19611
							 -90 0 0 9.25 791.44 A1.61122 1.60254 -90 0 0 10.14 790.2 A83.24 82.7916 -90 0 0 9.97 786.92 A166.091
							 165.196 -90 0 0 9.88 785.54 A7.62696 7.58588 -90 0 0 9.65 783.93 A6.14641 6.1797 -180 0 0 6.54 780.4
							 L6.53 779.84 C7.23 779.27 7.7 778.31 7.75 777.06 C7.67 775.05 6.43 773.72 4.91 773.66 C3.39 773.72 2.09
							 775.05 2.07 777.06 C2.08 778.29 2.54 779.24 3.23 779.81 L1 781.07 C0.98 781.08 0.96 781.09 0.94 781.1
							 Z M0.88 781.14 C0.88 781.14 0.88 781.14 0.88 781.14 L0.88 781.14 Z" class="st17"/>
				<path d="M0.94 781.1 L0.87 781.14 C0.45 781.43 0.26 781.93 0.21 782.56 C0.17 783.45 0.14 784.17 0.13 784.46 L0.07
							 785.83 C0.05 786.23 0.02 787 0 787.35 C-0.02 788.05 0.48 788.56 1.27 788.65 C2.19 789.61 2.43 790.01
							 3.76 790.56 C4.85 790.95 5.85 791.24 5.85 791.24 C6.65 791.96 7.25 792.05 7.82 791.98 A3.21342 3.19611
							 -90 0 0 9.25 791.44 A1.61122 1.60254 -90 0 0 10.14 790.2 A83.24 82.7916 -90 0 0 9.97 786.92 A166.091
							 165.196 -90 0 0 9.88 785.54 A7.62696 7.58588 -90 0 0 9.65 783.93 A6.14641 6.1797 -180 0 0 6.54 780.4
							 L6.53 779.84 C7.23 779.27 7.7 778.31 7.75 777.06 C7.67 775.05 6.43 773.72 4.91 773.66 C3.39 773.72 2.09
							 775.05 2.07 777.06 C2.08 778.29 2.54 779.24 3.23 779.81 L1 781.07 C0.98 781.08 0.96 781.09 0.94 781.1M0.88
							 781.14 C0.88 781.14 0.88 781.14 0.88 781.14" class="st18"/>
			</g>
			<g id="shape46-167" v:mID="46" v:groupContext="shape" transform="translate(0.444597,-0.558365)">
				<title>Sheet.46</title>
				<path d="M0.13 784.46 C0.14 784.17 0.17 783.45 0.21 782.56 C0.32 781.09 1.27 780.31 3.95 781.34 C4.63 781.85 8.18
							 783.21 7.53 789.68 L7.82 791.98 C7.25 792.05 6.65 791.96 5.85 791.24 C5.85 791.24 4.85 790.95 3.76 790.56
							 C2.43 790.01 2.19 789.61 1.27 788.65 C0.49 788.56 -0.02 788.05 0 787.35 C0.02 787 0.05 786.23 0.07 785.83
							 L0.13 784.46 Z" class="st19"/>
			</g>
			<g id="shape47-170" v:mID="47" v:groupContext="shape" transform="translate(1.31797,-7.29499)">
				<title>Sheet.47</title>
				<path d="M6.15 792 L8.77 790.67 A6.14641 6.1797 -180 0 0 2.37 786.54 L0 787.88 A6.04037 6.07308 0 0 1 6.15 792 Z"
						class="st20"/>
			</g>
			<g id="shape48-173" v:mID="48" v:groupContext="shape" transform="translate(7.46747,-0.582914)">
				<title>Sheet.48</title>
				<path d="M0 785.29 A2.13912 2.15071 0 0 1 2.62 783.95 A7.62696 7.58588 90 0 1 2.86 785.57 A166.091 165.196 90 0 1
							 2.95 786.94 A83.24 82.7916 90 0 1 3.11 790.23 A1.61122 1.60254 90 0 1 2.23 791.47 A2.93841 2.92259 90
							 0 1 0.39 792 L0 785.29 Z" class="st21"/>
			</g>
			<g id="shape49-176" v:mID="49" v:groupContext="shape" transform="translate(3.81891,-11.1891)">
				<title>Sheet.49</title>
				<path d="M0.08 790.52 L0.09 791.22 C0.09 791.22 0 791.61 1.42 791.85 C1.42 791.85 2.96 792 3.17 791.61 L3.15 790.27
							 C3.15 790.27 2.06 791.39 0.13 790.49 L0.08 790.52 Z" class="st22"/>
				<path d="M0.08 790.52 L0.09 791.22 C0.09 791.22 0 791.61 1.42 791.85 C1.42 791.85 2.96 792 3.17 791.61 L3.15 790.27
							 C3.15 790.27 2.06 791.39 0.13 790.49" class="st23"/>
			</g>
			<g id="shape50-180" v:mID="50" v:groupContext="shape" transform="translate(2.51221,-12.1353)">
				<title>Sheet.50</title>
				<path d="M5.68 788.63 C5.6 790.71 4.36 792 2.84 792 C1.32 792 0.02 790.71 0 788.63 C0.02 786.63 1.32 785.3 2.84 785.24
							 C4.36 785.3 5.6 786.63 5.68 788.63 L-1.42 783.54 L5.68 788.63 Z" class="st24"/>
				<path d="M5.68 788.63 C5.6 790.71 4.36 792 2.84 792 C1.32 792 0.02 790.71 0 788.63 C0.02 786.63 1.32 785.3 2.84 785.24
							 C4.36 785.3 5.6 786.63 5.68 788.63" class="st25"/>
			</g>
			<g id="shape51-184" v:mID="51" v:groupContext="shape" transform="translate(1.75609,-1.40645)">
				<title>Sheet.51</title>
				<path d="M0 789.41 L0 785.25 L0 789.41 Z M4.54 792 L4.54 787.84 L4.54 792 Z" class="st26"/>
				<path d="M0 789.41 L0 785.25M4.54 792 L4.54 787.84" class="st27"/>
			</g>
			<g id="shape52-187" v:mID="52" v:groupContext="shape" transform="translate(0.444096,-0.562937)">
				<title>Sheet.52</title>
				<path d="M8.76 791.71 C10.28 791.01 10.14 790.21 10.14 790.21 C10.11 788.62 9.87 785.39 9.84 785.01 C9.65 782.85
							 8.15 781.54 7.69 781.14 C7.31 780.81 6.95 780.55 6.56 780.41 L6.53 779.85 C7.3 779.16 7.75 778.18 7.75
							 777.06 C7.75 775.18 6.48 773.66 4.91 773.66 C3.34 773.66 2.07 775.18 2.07 777.06 C2.07 778.19 2.53 779.19
							 3.24 779.81 L0.87 781.14 C0.87 781.14 0.28 781.46 0.21 782.56 L0 787.36 C0 787.36 -0.03 787.82 0.21
							 788.11 C0.72 788.72 1.25 788.63 1.27 788.66 C2.68 790.44 4.29 790.78 5.85 791.25 C5.98 791.29 6.91 792.56
							 8.76 791.71 Z" class="st15"/>
			</g>
		</g>
		<g id="group53-189" transform="translate(171,-598.5) scale(-1,1)" v:mID="53" v:groupContext="group">
			<v:userDefs>
				<v:ud v:nameU="SkinColor" v:prompt="" v:val="VT5(#da8c36)"/>
				<v:ud v:nameU="visVersion" v:prompt="" v:val="VT0(12):26"/>
			</v:userDefs>
			<title>Person.53</title>
			<g id="shape54-190" v:mID="54" v:groupContext="shape" transform="translate(0.328365,-0.170418)">
				<title>Sheet.54</title>
				<path d="M0.94 781.1 L0.87 781.14 C0.45 781.43 0.26 781.93 0.21 782.56 C0.17 783.45 0.14 784.17 0.13 784.46 L0.07
							 785.83 C0.05 786.23 0.02 787 0 787.35 C-0.02 788.05 0.48 788.56 1.27 788.65 C2.19 789.61 2.43 790.01
							 3.76 790.56 C4.85 790.95 5.85 791.24 5.85 791.24 C6.65 791.96 7.25 792.05 7.82 791.98 A3.21342 3.19611
							 -90 0 0 9.25 791.44 A1.61122 1.60254 -90 0 0 10.14 790.2 A83.24 82.7916 -90 0 0 9.97 786.92 A166.091
							 165.196 -90 0 0 9.88 785.54 A7.62696 7.58588 -90 0 0 9.65 783.93 A6.14641 6.1797 -180 0 0 6.54 780.4
							 L6.53 779.84 C7.23 779.27 7.7 778.31 7.75 777.06 C7.67 775.05 6.43 773.72 4.91 773.66 C3.39 773.72 2.09
							 775.05 2.07 777.06 C2.08 778.29 2.54 779.24 3.23 779.81 L1 781.07 C0.98 781.08 0.96 781.09 0.94 781.1
							 Z M0.88 781.14 C0.88 781.14 0.88 781.14 0.88 781.14 L0.88 781.14 Z" class="st17"/>
				<path d="M0.94 781.1 L0.87 781.14 C0.45 781.43 0.26 781.93 0.21 782.56 C0.17 783.45 0.14 784.17 0.13 784.46 L0.07
							 785.83 C0.05 786.23 0.02 787 0 787.35 C-0.02 788.05 0.48 788.56 1.27 788.65 C2.19 789.61 2.43 790.01
							 3.76 790.56 C4.85 790.95 5.85 791.24 5.85 791.24 C6.65 791.96 7.25 792.05 7.82 791.98 A3.21342 3.19611
							 -90 0 0 9.25 791.44 A1.61122 1.60254 -90 0 0 10.14 790.2 A83.24 82.7916 -90 0 0 9.97 786.92 A166.091
							 165.196 -90 0 0 9.88 785.54 A7.62696 7.58588 -90 0 0 9.65 783.93 A6.14641 6.1797 -180 0 0 6.54 780.4
							 L6.53 779.84 C7.23 779.27 7.7 778.31 7.75 777.06 C7.67 775.05 6.43 773.72 4.91 773.66 C3.39 773.72 2.09
							 775.05 2.07 777.06 C2.08 778.29 2.54 779.24 3.23 779.81 L1 781.07 C0.98 781.08 0.96 781.09 0.94 781.1M0.88
							 781.14 C0.88 781.14 0.88 781.14 0.88 781.14" class="st18"/>
			</g>
			<g id="shape55-193" v:mID="55" v:groupContext="shape" transform="translate(0.444597,-0.558365)">
				<title>Sheet.55</title>
				<path d="M0.13 784.46 C0.14 784.17 0.17 783.45 0.21 782.56 C0.32 781.09 1.27 780.31 3.95 781.34 C4.63 781.85 8.18
							 783.21 7.53 789.68 L7.82 791.98 C7.25 792.05 6.65 791.96 5.85 791.24 C5.85 791.24 4.85 790.95 3.76 790.56
							 C2.43 790.01 2.19 789.61 1.27 788.65 C0.49 788.56 -0.02 788.05 0 787.35 C0.02 787 0.05 786.23 0.07 785.83
							 L0.13 784.46 Z" class="st19"/>
			</g>
			<g id="shape56-196" v:mID="56" v:groupContext="shape" transform="translate(1.31797,-7.29499)">
				<title>Sheet.56</title>
				<path d="M6.15 792 L8.77 790.67 A6.14641 6.1797 -180 0 0 2.37 786.54 L0 787.88 A6.04037 6.07308 0 0 1 6.15 792 Z"
						class="st20"/>
			</g>
			<g id="shape57-199" v:mID="57" v:groupContext="shape" transform="translate(7.46747,-0.582914)">
				<title>Sheet.57</title>
				<path d="M0 785.29 A2.13912 2.15071 0 0 1 2.62 783.95 A7.62696 7.58588 90 0 1 2.86 785.57 A166.091 165.196 90 0 1
							 2.95 786.94 A83.24 82.7916 90 0 1 3.11 790.23 A1.61122 1.60254 90 0 1 2.23 791.47 A2.93841 2.92259 90
							 0 1 0.39 792 L0 785.29 Z" class="st21"/>
			</g>
			<g id="shape58-202" v:mID="58" v:groupContext="shape" transform="translate(3.81891,-11.1891)">
				<title>Sheet.58</title>
				<path d="M0.08 790.52 L0.09 791.22 C0.09 791.22 0 791.61 1.42 791.85 C1.42 791.85 2.96 792 3.17 791.61 L3.15 790.27
							 C3.15 790.27 2.06 791.39 0.13 790.49 L0.08 790.52 Z" class="st22"/>
				<path d="M0.08 790.52 L0.09 791.22 C0.09 791.22 0 791.61 1.42 791.85 C1.42 791.85 2.96 792 3.17 791.61 L3.15 790.27
							 C3.15 790.27 2.06 791.39 0.13 790.49" class="st23"/>
			</g>
			<g id="shape59-206" v:mID="59" v:groupContext="shape" transform="translate(2.51221,-12.1353)">
				<title>Sheet.59</title>
				<path d="M5.68 788.63 C5.6 790.71 4.36 792 2.84 792 C1.32 792 0.02 790.71 0 788.63 C0.02 786.63 1.32 785.3 2.84 785.24
							 C4.36 785.3 5.6 786.63 5.68 788.63 L-1.42 783.54 L5.68 788.63 Z" class="st24"/>
				<path d="M5.68 788.63 C5.6 790.71 4.36 792 2.84 792 C1.32 792 0.02 790.71 0 788.63 C0.02 786.63 1.32 785.3 2.84 785.24
							 C4.36 785.3 5.6 786.63 5.68 788.63" class="st25"/>
			</g>
			<g id="shape60-210" v:mID="60" v:groupContext="shape" transform="translate(1.75609,-1.40645)">
				<title>Sheet.60</title>
				<path d="M0 789.41 L0 785.25 L0 789.41 Z M4.54 792 L4.54 787.84 L4.54 792 Z" class="st26"/>
				<path d="M0 789.41 L0 785.25M4.54 792 L4.54 787.84" class="st27"/>
			</g>
			<g id="shape61-213" v:mID="61" v:groupContext="shape" transform="translate(0.444096,-0.562937)">
				<title>Sheet.61</title>
				<path d="M8.76 791.71 C10.28 791.01 10.14 790.21 10.14 790.21 C10.11 788.62 9.87 785.39 9.84 785.01 C9.65 782.85
							 8.15 781.54 7.69 781.14 C7.31 780.81 6.95 780.55 6.56 780.41 L6.53 779.85 C7.3 779.16 7.75 778.18 7.75
							 777.06 C7.75 775.18 6.48 773.66 4.91 773.66 C3.34 773.66 2.07 775.18 2.07 777.06 C2.07 778.19 2.53 779.19
							 3.24 779.81 L0.87 781.14 C0.87 781.14 0.28 781.46 0.21 782.56 L0 787.36 C0 787.36 -0.03 787.82 0.21
							 788.11 C0.72 788.72 1.25 788.63 1.27 788.66 C2.68 790.44 4.29 790.78 5.85 791.25 C5.98 791.29 6.91 792.56
							 8.76 791.71 Z" class="st15"/>
			</g>
		</g>
		<g id="group63-215" transform="translate(63,-540)" v:mID="63" v:groupContext="group">
			<v:userDefs>
				<v:ud v:nameU="Scale" v:val="VT0(1):26"/>
				<v:ud v:nameU="AntiScale" v:val="VT0(1):26"/>
				<v:ud v:nameU="visVersion" v:val="VT0(12):26"/>
			</v:userDefs>
			<title>Box  callout</title>
			<g id="shape64-216" v:mID="64" v:groupContext="shape" transform="translate(-784.488,900.824) rotate(-97.8977)">
				<title>Sheet.64</title>
				<path d="M0 792 L36.57 792" class="st28"/>
			</g>
			<g id="shape65-219" v:mID="65" v:groupContext="shape" transform="translate(-39.4009,25.2778)">
				<title>Sheet.65</title>
				<desc>Operator chooses their own model for organizing tenants</desc>
				<v:textBlock v:margins="rect(4,4,4,4)"/>
				<v:textRect cx="39.4009" cy="766.722" width="78.81" height="50.5556"/>
				<rect x="0" y="741.444" width="78.8018" height="50.5556" class="st29"/>
				<text x="4" y="759.52" class="st5" v:langID="1033"><v:paragraph/><v:tabList/>Operator chooses <tspan x="4"
							dy="1.2em" class="st14">their own model for </tspan><tspan x="4" dy="1.2em" class="st14">organizing tenants</tspan></text>			</g>
		</g>
		<g id="shape66-224" v:mID="66" v:groupContext="shape" transform="translate(24.75,-438.75)">
			<title>Rectangle.66</title>
			<desc>Tenant to Account Mapping</desc>
			<v:userDefs>
				<v:ud v:nameU="visVersion" v:val="VT0(12):26"/>
			</v:userDefs>
			<v:textBlock v:margins="rect(4,4,4,4)" v:verticalAlign="0"/>
			<v:textRect cx="58.5" cy="761.625" width="117" height="60.75"/>
			<rect x="0" y="731.25" width="117" height="60.75" class="st30"/>
			<text x="5.84" y="742.45" class="st11" v:langID="1033"><v:paragraph v:horizAlign="1"/><v:tabList/>Tenant to Account Mapping</text>		</g>
		<g id="shape67-227" v:mID="67" v:groupContext="shape" transform="translate(29.25,-445.219)">
			<title>Sheet.67</title>
			<desc>Tenant Account ---------- -------- Tenant A A1000</desc>
			<v:textBlock v:margins="rect(4,4,4,4)" v:verticalAlign="0"/>
			<v:textRect cx="51.75" cy="773.719" width="103.5" height="36.5625"/>
			<rect x="0" y="755.438" width="103.5" height="36.5625" class="st15"/>
			<text x="4" y="766.64" class="st16" v:langID="1033"><v:paragraph/><v:tabList/>Tenant     <tspan class="st12">Account<v:newlineChar/></tspan><tspan
						x="4" dy="1.2em" class="st14">----------</tspan> <tspan class="st12">--------<v:newlineChar/></tspan><tspan
						x="4" dy="1.2em" class="st14">Tenant A   </tspan><tspan class="st12">A</tspan><tspan class="st12">1000</tspan></text>		</g>
		<g id="group68-236" transform="translate(175.5,-540)" v:mID="68" v:groupContext="group">
			<v:userDefs>
				<v:ud v:nameU="Scale" v:val="VT0(1):26"/>
				<v:ud v:nameU="AntiScale" v:val="VT0(1):26"/>
				<v:ud v:nameU="visVersion" v:val="VT0(12):26"/>
			</v:userDefs>
			<title>Box  callout.68</title>
			<g id="shape69-237" v:mID="69" v:groupContext="shape" transform="translate(638.673,1260.36) rotate(126.254)">
				<title>Sheet.69</title>
				<path d="M5.76 792 L6.12 792 L83.7 792" class="st31"/>
			</g>
			<g id="shape70-243" v:mID="70" v:groupContext="shape" transform="translate(-58.5,25.2778)">
				<title>Sheet.70</title>
				<desc>Operator generates and maintains account strings and mappings...</desc>
				<v:textBlock v:margins="rect(4,4,4,4)"/>
				<v:textRect cx="58.5" cy="766.722" width="117" height="50.5556"/>
				<rect x="0" y="741.444" width="117" height="50.5556" class="st33"/>
				<text x="4" y="754.72" class="st5" v:langID="1033"><v:paragraph/><v:tabList/>Operator generates and <tspan x="4"
							dy="1.2em" class="st14">maintains account strings and </tspan><tspan x="4" dy="1.2em" class="st14">mappings between accounts </tspan><tspan
							x="4" dy="1.2em" class="st14">and tenants</tspan></text>			</g>
		</g>
		<g id="group71-251" transform="translate(201.441,-454.235)" v:mID="71" v:groupContext="group">
			<v:userDefs>
				<v:ud v:nameU="Scale" v:val="VT0(1):26"/>
				<v:ud v:nameU="AntiScale" v:val="VT0(1):26"/>
				<v:ud v:nameU="visVersion" v:val="VT0(12):26"/>
			</v:userDefs>
			<title>Box  callout.71</title>
			<g id="shape72-252" v:mID="72" v:groupContext="shape" transform="translate(698.951,1164.47) rotate(118.053)">
				<title>Sheet.72</title>
				<path d="M5.76 792 L6.12 792 L45.59 792" class="st31"/>
			</g>
			<g id="shape73-257" v:mID="73" v:groupContext="shape" transform="translate(-49.5,24.75)">
				<title>Sheet.73</title>
				<desc>Operator provisions accounts to OpenStack services using CRUD...</desc>
				<v:textBlock v:margins="rect(4,4,4,4)"/>
				<v:textRect cx="49.5" cy="767.25" width="99" height="49.5"/>
				<rect x="0" y="742.5" width="99" height="49.5" class="st33"/>
				<text x="4" y="755.25" class="st5" v:langID="1033"><v:paragraph/><v:tabList/>Operator provisions <tspan x="4"
							dy="1.2em" class="st14">accounts to OpenStack </tspan><tspan x="4" dy="1.2em" class="st14">services using CRUD </tspan><tspan
							x="4" dy="1.2em" class="st14">operations on Admin API</tspan></text>			</g>
		</g>
		<g id="shape74-264" v:mID="74" v:groupContext="shape" transform="translate(348.682,916.592) rotate(179.483)">
			<title>Sheet.74</title>
			<path d="M6.47 749.77 L6.68 750.06 A220.57 147.362 -34.08 0 0 264.63 741.12" class="st34"/>
		</g>
		<g id="shape75-270" v:mID="75" v:groupContext="shape" transform="translate(72,-558)">
			<title>Sheet.75</title>
			<desc>1</desc>
			<v:textBlock v:margins="rect(4,4,4,4)"/>
			<v:textRect cx="9" cy="783" width="18" height="18"/>
			<ellipse cx="9" cy="783" rx="9" ry="9" class="st36"/>
			<text x="6.78" y="785.4" class="st11" v:langID="1033"><v:paragraph v:horizAlign="1"/><v:tabList/>1</text>		</g>
		<g id="shape76-273" v:mID="76" v:groupContext="shape" transform="translate(229.5,-531)">
			<title>Sheet.76</title>
			<desc>2</desc>
			<v:textBlock v:margins="rect(4,4,4,4)"/>
			<v:textRect cx="9" cy="783" width="18" height="18"/>
			<ellipse cx="9" cy="783" rx="9" ry="9" class="st36"/>
			<text x="6.78" y="785.4" class="st11" v:langID="1033"><v:paragraph v:horizAlign="1"/><v:tabList/>2</text>		</g>
		<g id="shape77-276" v:mID="77" v:groupContext="shape" transform="translate(225,-468)">
			<title>Sheet.77</title>
			<desc>3</desc>
			<v:textBlock v:margins="rect(4,4,4,4)"/>
			<v:textRect cx="9" cy="783" width="18" height="18"/>
			<ellipse cx="9" cy="783" rx="9" ry="9" class="st36"/>
			<text x="6.78" y="785.4" class="st11" v:langID="1033"><v:paragraph v:horizAlign="1"/><v:tabList/>3</text>		</g>
		<g id="shape81-279" v:mID="81" v:groupContext="shape" transform="translate(427.5,-472.5)">
			<title>Sheet.81</title>
			<desc>Public/Consumer Network</desc>
			<v:textBlock v:margins="rect(4,4,4,4)"/>
			<v:textRect cx="56.25" cy="783" width="112.5" height="18"/>
			<rect x="0" y="774" width="112.5" height="18" class="st7"/>
			<text x="4" y="785.4" class="st5" v:langID="1033"><v:paragraph/><v:tabList/>Public/Consumer Network</text>		</g>
		<g id="shape82-282" v:mID="82" v:groupContext="shape" transform="translate(427.5,-445.5)">
			<title>Sheet.82</title>
			<desc>Private/Management Network</desc>
			<v:textBlock v:margins="rect(4,4,4,4)"/>
			<v:textRect cx="60.75" cy="783" width="121.5" height="18"/>
			<rect x="0" y="774" width="121.5" height="18" class="st7"/>
			<text x="4" y="785.4" class="st5" v:langID="1033"><v:paragraph/><v:tabList/>Private/Management Network</text>		</g>
		<g id="shape83-285" v:mID="83" v:groupContext="shape" transform="translate(438.75,-363.375)">
			<title>Sheet.83</title>
			<desc>Raw Logs</desc>
			<v:textBlock v:margins="rect(4,4,4,4)"/>
			<v:textRect cx="23.625" cy="783" width="47.25" height="18"/>
			<rect x="0" y="774" width="47.25" height="18" class="st7"/>
			<text x="4" y="785.4" class="st5" v:langID="1033"><v:paragraph/><v:tabList/>Raw Logs</text>		</g>
		<g id="group85-288" transform="translate(481.482,-623.811)" v:mID="85" v:groupContext="group">
			<v:userDefs>
				<v:ud v:nameU="Scale" v:val="VT0(1):26"/>
				<v:ud v:nameU="AntiScale" v:val="VT0(1):26"/>
				<v:ud v:nameU="visVersion" v:val="VT0(12):26"/>
			</v:userDefs>
			<title>Box  callout.85</title>
			<g id="shape86-289" v:mID="86" v:groupContext="shape" transform="translate(75.3683,1580.41) rotate(174.539)">
				<title>Sheet.86</title>
				<path d="M5.76 792 L6.12 792 L76.83 792" class="st31"/>
			</g>
			<g id="shape87-294" v:mID="87" v:groupContext="shape" transform="translate(-42.75,24.1886)">
				<title>Sheet.87</title>
				<desc>Operators customer accesses service using their assigned acc...</desc>
				<v:textBlock v:margins="rect(4,4,4,4)"/>
				<v:textRect cx="42.75" cy="767.811" width="85.5" height="48.3772"/>
				<rect x="0" y="743.623" width="85.5" height="48.3772" class="st33"/>
				<text x="4" y="755.81" class="st5" v:langID="1033"><v:paragraph/><v:tabList/>Operators customer <tspan x="4"
							dy="1.2em" class="st14">accesses service </tspan><tspan x="4" dy="1.2em" class="st14">using their assigned </tspan><tspan
							x="4" dy="1.2em" class="st14">account</tspan></text>			</g>
		</g>
		<g id="group88-301" transform="translate(472.482,-533.811)" v:mID="88" v:groupContext="group">
			<v:userDefs>
				<v:ud v:nameU="Scale" v:val="VT0(1):26"/>
				<v:ud v:nameU="AntiScale" v:val="VT0(1):26"/>
				<v:ud v:nameU="visVersion" v:val="VT0(12):26"/>
			</v:userDefs>
			<title>Box  callout.88</title>
			<g id="shape89-302" v:mID="89" v:groupContext="shape" transform="translate(426.114,1459.6) rotate(147.451)">
				<title>Sheet.89</title>
				<path d="M5.76 792 L6.12 792 L101.41 792" class="st31"/>
			</g>
			<g id="shape90-307" v:mID="90" v:groupContext="shape" transform="translate(-42.75,28.6886)">
				<title>Sheet.90</title>
				<desc>Service provides functionality and tracks usage at resource a...</desc>
				<v:textBlock v:margins="rect(4,4,4,4)"/>
				<v:textRect cx="42.75" cy="763.311" width="85.5" height="57.3772"/>
				<rect x="0" y="734.623" width="85.5" height="57.3772" class="st33"/>
				<text x="4" y="746.51" class="st5" v:langID="1033"><v:paragraph/><v:tabList/>Service provides <tspan x="4"
							dy="1.2em" class="st14">functionality and </tspan><tspan x="4" dy="1.2em" class="st14">tracks usage at </tspan><tspan
							x="4" dy="1.2em" class="st14">resource and account </tspan><tspan x="4" dy="1.2em" class="st14">level</tspan></text>			</g>
		</g>
		<g id="group91-315" transform="translate(490.482,-414.561)" v:mID="91" v:groupContext="group">
			<v:userDefs>
				<v:ud v:nameU="Scale" v:val="VT0(1):26"/>
				<v:ud v:nameU="AntiScale" v:val="VT0(1):26"/>
				<v:ud v:nameU="visVersion" v:val="VT0(12):26"/>
			</v:userDefs>
			<title>Box  callout.91</title>
			<g id="shape92-316" v:mID="92" v:groupContext="shape" transform="translate(311.452,1520.19) rotate(156.843)">
				<title>Sheet.92</title>
				<path d="M5.76 792 L6.12 792 L92.97 792" class="st31"/>
			</g>
			<g id="shape93-321" v:mID="93" v:groupContext="shape" transform="translate(-58.4825,21.9386)">
				<title>Sheet.93</title>
				<desc>Service generates raw usage, audit logs providing, at a minim...</desc>
				<v:textBlock v:margins="rect(4,4,4,4)"/>
				<v:textRect cx="58.4825" cy="770.061" width="116.97" height="43.8772"/>
				<rect x="0" y="748.123" width="116.965" height="43.8772" class="st33"/>
				<text x="4" y="758.06" class="st5" v:langID="1033"><v:paragraph/><v:tabList/>Service generates raw usage, <tspan
							x="4" dy="1.2em" class="st14">audit logs providing</tspan>, at a <tspan x="4" dy="1.2em" class="st14">minimum</tspan>, the associated <tspan
							x="4" dy="1.2em" class="st14">account</tspan></text>			</g>
		</g>
		<g id="shape78-328" v:mID="78" v:groupContext="shape" transform="translate(423,-625.5)">
			<title>Sheet.78</title>
			<desc>4</desc>
			<v:textBlock v:margins="rect(4,4,4,4)"/>
			<v:textRect cx="9" cy="783" width="18" height="18"/>
			<ellipse cx="9" cy="783" rx="9" ry="9" class="st36"/>
			<text x="6.78" y="785.4" class="st11" v:langID="1033"><v:paragraph v:horizAlign="1"/><v:tabList/>4</text>		</g>
		<g id="shape79-331" v:mID="79" v:groupContext="shape" transform="translate(531,-382.5)">
			<title>Sheet.79</title>
			<desc>5</desc>
			<v:textBlock v:margins="rect(4,4,4,4)"/>
			<v:textRect cx="9" cy="783" width="18" height="18"/>
			<ellipse cx="9" cy="783" rx="9" ry="9" class="st36"/>
			<text x="6.78" y="785.4" class="st11" v:langID="1033"><v:paragraph v:horizAlign="1"/><v:tabList/>5</text>		</g>
		<g id="shape94-334" v:mID="94" v:groupContext="shape" transform="translate(18,-311.625)">
			<title>Rectangle.94</title>
			<desc>Tenant Accounting</desc>
			<v:userDefs>
				<v:ud v:nameU="visVersion" v:val="VT0(12):26"/>
			</v:userDefs>
			<v:textBlock v:margins="rect(4,4,4,4)" v:verticalAlign="0"/>
			<v:textRect cx="85.5" cy="761.625" width="171" height="60.75"/>
			<rect x="0" y="731.25" width="171" height="60.75" class="st30"/>
			<text x="49.28" y="742.45" class="st11" v:langID="1033"><v:paragraph v:horizAlign="1"/><v:tabList/>Tenant Accounting</text>		</g>
		<g id="shape95-337" v:mID="95" v:groupContext="shape" transform="translate(22.5,-318.094)">
			<title>Sheet.95</title>
			<desc>Tenant Account Usage Charge ---------- ------- ------ ------ ...</desc>
			<v:textBlock v:margins="rect(4,4,4,4)" v:verticalAlign="0"/>
			<v:textRect cx="81" cy="773.719" width="162" height="36.5625"/>
			<rect x="0" y="755.438" width="162" height="36.5625" class="st15"/>
			<text x="4" y="766.64" class="st16" v:langID="1033"><v:paragraph/><v:tabList/>Tenant     <tspan class="st12">Account </tspan><tspan
						class="st37">Usage  Charge<v:newlineChar/></tspan><tspan x="4" dy="1.2em" class="st14">----------</tspan> <tspan
						class="st12">-------</tspan><tspan class="st12"> </tspan><tspan class="st37">------</tspan><tspan
						class="st37"> </tspan><tspan class="st37">------<v:newlineChar/></tspan><tspan x="4" dy="1.2em"
						class="st14">Tenant A   </tspan><tspan class="st12">A</tspan><tspan class="st12">1000   </tspan><tspan
						class="st37">10</tspan><tspan class="st37">.</tspan><tspan class="st37">00  </tspan><tspan class="st37">$</tspan><tspan
						class="st37">99</tspan><tspan class="st37">.</tspan><tspan class="st37">90</tspan></text>		</g>
		<g id="group96-358" transform="translate(239.691,-311.36)" v:mID="96" v:groupContext="group">
			<v:userDefs>
				<v:ud v:nameU="Scale" v:val="VT0(1):26"/>
				<v:ud v:nameU="AntiScale" v:val="VT0(1):26"/>
				<v:ud v:nameU="visVersion" v:val="VT0(12):26"/>
			</v:userDefs>
			<title>Box  callout.96</title>
			<g id="shape97-359" v:mID="97" v:groupContext="shape" transform="translate(-762.723,1005.35) rotate(-105.627)">
				<title>Sheet.97</title>
				<path d="M5.76 792 L6.12 792 L29.48 792" class="st31"/>
			</g>
			<g id="shape98-364" v:mID="98" v:groupContext="shape" transform="translate(-43.9412,19.3897)">
				<title>Sheet.98</title>
				<desc>Operator calculates chare and performs chargeback to tenant</desc>
				<v:textBlock v:margins="rect(4,4,4,4)"/>
				<v:textRect cx="43.9412" cy="772.61" width="87.89" height="38.7794"/>
				<rect x="0" y="753.221" width="87.8824" height="38.7794" class="st33"/>
				<text x="4" y="765.41" class="st5" v:langID="1033"><v:paragraph/><v:tabList/>Operator calculates <tspan x="4"
							dy="1.2em" class="st14">chare and performs </tspan><tspan x="4" dy="1.2em" class="st14">chargeback to tenant</tspan></text>			</g>
		</g>
		<g id="shape80-370" v:mID="80" v:groupContext="shape" transform="translate(202.5,-333)">
			<title>Sheet.80</title>
			<desc>6</desc>
			<v:textBlock v:margins="rect(4,4,4,4)"/>
			<v:textRect cx="9" cy="783" width="18" height="18"/>
			<ellipse cx="9" cy="783" rx="9" ry="9" class="st36"/>
			<text x="6.78" y="785.4" class="st11" v:langID="1033"><v:paragraph v:horizAlign="1"/><v:tabList/>6</text>		</g>
	</g>
</svg>
